<svg xmlns="http://www.w3.org/2000/svg" viewBox="0 0 128 160" fill="#FDE68A">
  <path d="M125.20468,53.08828v-.001l-.45993-.551c-1.55359-1.859-2.89528-3.464-3.27611-5.58779a4.08452,4.08452,0,0,0-3.36107-3.32825c-.40817-1.05992-.79291-2.12766-1.17862-3.19539l-.60445-1.66461c-.02441-.06643-.04394-.13774-.06542-.20905a3.4917,3.4917,0,0,0-1.02531-1.76816c-.40427-.34289-.80463-.7522-1.22744-1.18594a9.92859,9.92859,0,0,0-4.70667-3.16511c-.12108-.71606-.251-1.44872-.414-2.17943-.13085-.58515-.95305-3.71412-.95305-3.71412a15.793,15.793,0,0,1-.42575-3.15827,8.12907,8.12907,0,0,0-4.90294-8.02316,27.876,27.876,0,0,0-2.243-7.17132c-.48336-1.15956-.93938-2.25465-1.30849-3.37416C98.66766,3.64614,97.366,1.918,95.69914,2.003A4.69836,4.69836,0,0,0,92.42791,4.034a9.88066,9.88066,0,0,0-1.25967,2.4344S88.605,14.46613,88.0386,19.44922a37.40443,37.40443,0,0,1-1.2167,5.52527l-.02832.10355c-.11132-.05177-.22459-.10355-.33689-.15435A16.16212,16.16212,0,0,1,83.743,23.48083c-1.9686-1.42332-6.82369-5.23806-7.32463-5.62979a5.53576,5.53576,0,0,0,.67671-1.78575c.03906-.22566.04394-.255.43356-.507A5.7666,5.7666,0,0,0,80.29994,10.162c-.0957-1.18985-.92571-3.0557-2.47149-3.48064-.372-.1016-.74213-.23348-1.11515-.3634-1.55847-.54706-3.656-1.27972-5.94-.20124-.05175-.01465-5.93314-1.57083-8.26011-2.2527a7.21346,7.21346,0,0,0-5.88431.97982,2.00115,2.00115,0,0,0-.88372,2.33573,4.9751,4.9751,0,0,0-2.118,1.37839,54.19648,54.19648,0,0,0-3.947,5.42953c-.21971.33019-.4404.66233-.666.9974-.23826-.28037-.96672-.99154-.96672-.99154-2.39337-2.43635-4.12273-2.60145-6.85787-.64865-.76557.54706-4.96348,3.59787-6.31592,4.52689-.80463.55194-2.69413,1.85022-2.74393,4.057-2.04769,1.5044-5.00352,4.3911-5.97708,6.3605a3.8379,3.8379,0,0,0-.41305,2.66983c-.93059,1.59428-1.88267,2.75384-3.41185,3.24228a14.27141,14.27141,0,0,0-2.16.95051c-.37595.19147-6.06789,2.51841-7.061,2.93163,0,0-2.75858,1.14491-3.89033,1.80626a69.63561,69.63561,0,0,0-6.06008,3.89191A5.29453,5.29453,0,0,0,.98476,47.63042c-.00293.67014-.02441,1.34419-.04589,2.01629-.084,2.67764-.17089,5.42953.79486,8.04172A4.15769,4.15769,0,0,0,.4809,58.92908c-1.25381,2.00945.27439,3.717.85052,4.35984,0,0,3.5261,3.802,3.86591,5.242a3.93837,3.93837,0,0,0,.89544,1.61284c.05078.06154.10253.12211.14745.18268a9.26928,9.26928,0,0,1,2.02719,3.98374,8.194,8.194,0,0,0,1.44618,3.20223,7.05289,7.05289,0,0,1,1.40614,5.01826l-.01367.1055c-.02539.19538-.05957.464-.05859.47965a3.78013,3.78013,0,0,0-.955,5.28007,6.51282,6.51282,0,0,0,4.8424,3.19539c.57222.07424,1.14835.13383,1.7235.1944a28.75379,28.75379,0,0,1,3.5261.51189c3.79072.87822,5.57379-1.15663,6.29834-2.451A4.33752,4.33752,0,0,1,28.467,88.05492,6.48891,6.48891,0,0,1,31.543,87.417c4.611.45816,8.47591-1.269,11.81452-5.28691a6.02572,6.02572,0,0,1,2.01547-.89287l.55953-.18268c1.3456-.45425,9.57934-2.23023,12.40627-2.71281.11913.03028,1.86216.6086,1.86216.6086,1.10538.32726,2.15022.636,3.17651,1.00228a4.5638,4.5638,0,0,1,1.18057.5451,15.146,15.146,0,0,1,3.4802,5.10618A3.83464,3.83464,0,0,0,70.75282,88.221a4.00808,4.00808,0,0,0,3.71749-1.30121c.35739-.339,1.06828-1.05406,1.92173-1.92446.083,2.72649.26853,3.21688.39352,3.55l.04687.12406a5.739,5.739,0,0,0,2.17268,3.11529l-.01465.04787a4.91791,4.91791,0,0,0,1.44618,5.86718l.13866.14556a6.28554,6.28554,0,0,0,1.11417.888c.14159.09476.35544.23738.38571.26181a6.17519,6.17519,0,0,0,4.941,2.78608c1.05949.06154,2.117.14165,3.17456.22175,1.43446.10941,2.91677.22175,4.39029.28623a1.43964,1.43964,0,0,1,1.26943.59688c1.24209,1.54641,2.46465,2.31327,3.79463,2.31327a5.87413,5.87413,0,0,0,3.49094-1.48487l.10839-.08206a6.771,6.771,0,0,0,.92669-.81375c1.18838-1.30023,2.03109-1.48,2.9402-1.35689a9.68174,9.68174,0,0,0,2.34357-.03126c.27537-.02833.55074-.05666.82318-.06838a3.92727,3.92727,0,0,0,4.069-3.74636c.11523-.87236.21385-1.74863.292-2.62391a2.6927,2.6927,0,0,1,.9677-1.99089,8.1552,8.1552,0,0,0,2.45587-3.16316,52.81925,52.81925,0,0,1,4.07293-6.845,30.81208,30.81208,0,0,0,4.38833-9.92809,54.90636,54.90636,0,0,0,1.19913-9.06648c.07226-.95735.14452-1.9147.23338-2.86618A10.80568,10.80568,0,0,0,125.20468,53.08828Zm-1.23037,7.67051c-.09179.97591-.166,1.9567-.24022,2.9375a51.20416,51.20416,0,0,1-1.09269,8.409,27.21812,27.21812,0,0,1-3.80635,8.62883l-.57613.83621a32.89337,32.89337,0,0,0-3.92646,6.8255,4.53045,4.53045,0,0,1-1.33681,1.57474A6.65176,6.65176,0,0,0,110.655,94.6362c-.07226.82058-.165,1.64019-.27244,2.45491a2.40828,2.40828,0,0,1-.04589.254c-.05566.00782-2.29865.20319-2.67362.15435a7.19969,7.19969,0,0,0-6.44482,2.62c-.07519.083-1.35732,1.00033-1.494,1.05894a4.67945,4.67945,0,0,1-.75678-.80007,5.42183,5.42183,0,0,0-4.20866-2.08663c-1.413-.06154-2.86306-.17193-4.2653-.27841-1.081-.08206-2.16194-.16412-3.24584-.22761a2.164,2.164,0,0,1-1.88071-1.06383A5.079,5.079,0,0,0,83.911,95.406a3.765,3.765,0,0,1-.43649-.31749,10.9645,10.9645,0,0,1-.87981-1.00815A3.91671,3.91671,0,0,1,82.83,92.956a7.51916,7.51916,0,0,0,.41012-2.7851,1.99985,1.99985,0,0,0-1.992-1.8385c-.03515,0-.18065-.001-.19237.002a5.459,5.459,0,0,1-.47848-1.07067l-.02051-.043c-.041-.167-.24217-1.29144-.20213-7.09707a1.99911,1.99911,0,0,0-3.43626-1.40476c-2.73319,2.82418-4.62953,4.75548-5.20468,5.30254a19.0587,19.0587,0,0,0-4.29752-6.3224A6.88275,6.88275,0,0,0,64.724,76.18478c-1.13273-.40443-4.09148-1.27972-4.09148-1.27972-.13573-.041-.27342-.09378-.41305-.14653a4.635,4.635,0,0,0-2.42071-.38392c-2.77322.463-11.43759,2.31327-13.14449,2.88767l-.50875.167a7.94344,7.94344,0,0,0-3.864,2.14329c-2.491,2.99806-5.06113,4.19182-8.34213,3.86261a10.41883,10.41883,0,0,0-5.16464.99447,8.30651,8.30651,0,0,0-3.78193,3.46111c-.1992.35559-.47457.844-1.90122.509a32.33631,32.33631,0,0,0-4.01727-.59395c-.5439-.05666-1.08781-.11332-1.62878-.18268a2.526,2.526,0,0,1-1.95493-1.33833,4.21206,4.21206,0,0,0,1.58289-3.14166l.01269-.09964a11.05012,11.05012,0,0,0-2.04281-7.7467,5.32527,5.32527,0,0,1-.82513-1.61088,12.8193,12.8193,0,0,0-2.7742-5.75483c-.083-.11136-.35544-.43862-.39645-.49137a12.51377,12.51377,0,0,0-3.48606-5.44223c-.34568-.36731-.69135-.73462-1.01848-1.11463,0,0-.0625-.17877-.03222-.1944.30564-.171.62007-.34973.92083-.551a2.00194,2.00194,0,0,0,.60152-2.69034c-1.27139-2.1218-1.18643-4.819-1.0966-7.67441.02246-.70824.04492-1.41844.03906-2.03a1.84132,1.84132,0,0,1,.54879-.73657,65.63531,65.63531,0,0,1,5.7105-3.66137c.89739-.52556,8.33822-3.53828,9.33522-3.95346.48043-.20026.94817-.43667,1.414-.675A11.16616,11.16616,0,0,1,23.5465,38.013c2.98707-.95637,4.59047-3.1866,5.7642-5.24a3.58263,3.58263,0,0,0,.373-2.61219c.48531-1.30023,4.12468-4.6871,5.359-5.40315a2.13638,2.13638,0,0,0,1.01945-.91339,1.84535,1.84535,0,0,0,.07324-1.79259c.02051-.05959.15331-.29893,1.00188-.88115,1.39638-.9593,7.1-5.05148,7.24163-5.12083.13573.09769,1.496,1.40574,1.6444,1.59525a4.3796,4.3796,0,0,0,4.04559,1.78575A1.99723,1.99723,0,0,0,51.394,18.5964c.56148-.80984,3.96747-5.9209,5.26034-7.42433a5.62133,5.62133,0,0,1,1.47059-.548,15.5287,15.5287,0,0,0,1.47938-.47867,1.99988,1.99988,0,0,0,1.14054-2.54772c.21483.00684,8.8958,2.35625,8.8958,2.35625a3.37231,3.37231,0,0,0,2.66-.12406c.80072-.465,1.52137-.28525,3.09254.26474.29685.10355,1.5444,1.03361-.041,2.10617a4.53257,4.53257,0,0,0-2.1981,3.18576A7.57941,7.57941,0,0,1,72.07756,17.338c-1.10958,2.096,2.06388,3.80879,3.37119,4.83676,1.92563,1.51417,3.91767,3.07914,5.95364,4.55033a19.34562,19.34562,0,0,0,3.39329,1.8385c1.25078.57653,2.51445,1.08112,3.86295.45525A4.132,4.132,0,0,0,90.681,26.02561a41.06046,41.06046,0,0,0,1.33193-6.1241A43.37106,43.37106,0,0,1,94.749,8.28635l.13476-.336a9.09506,9.09506,0,0,1,.57906-1.27484c.372,1.04722.79486,2.06318,1.20694,3.05081A20.86048,20.86048,0,0,1,98.72039,16.879a2.00041,2.00041,0,0,0,1.46375,1.85608c2.29377.63791,3.34935,2.1003,3.323,4.60211a19.0086,19.0086,0,0,0,.50387,3.98862s1.27334,5.34845,1.40614,6.13973c.0625.37122.126.74634.19334,1.12342a1.99958,1.99958,0,0,0,1.9686,1.649c.01562-.001.03027,0,.04589,0,1.35048,0,2.17854.78053,3.51926,2.154.39938.40932.80951.82938,1.26162,1.23283.00781.02638,1.72155,4.817,2.24006,6.129a3.11851,3.11851,0,0,0,2.54375,1.76914c.21483.02247.31833.08108.34177.13188.56929,3.17,2.46954,5.44223,4.14519,7.44778l.44821.53826A6.78547,6.78547,0,0,1,123.97431,60.75878Z" />
  <path d="M106.29891,109.88538a3.65955,3.65955,0,0,0-3.65694-.212,3.14015,3.14015,0,0,1-3.27337-.46707c-1.86914-1.23767-4.55994-1.55377-6.24151.13883-1.39532,1.40448-1.19367,3.16578-.68746,4.90886a42.05065,42.05065,0,0,1,1.122,4.51712,10.71774,10.71774,0,0,0,3.09447,5.85153,4.83654,4.83654,0,0,0,6.96433-.21c2.42559-2.81929,4.62757-5.917,4.36-9.46993C108.038,113.283,107.9023,111.01759,106.29891,109.88538Zm-2.31232,5.28886c.19823,2.12472-1.5155,4.44091-3.39718,6.62815a.7522.7522,0,0,1-1.11126-.01463,6.71176,6.71176,0,0,1-1.97543-3.69849,45.44724,45.44724,0,0,0-1.22159-4.95086s-.23729-.79421-.26756-.98177c.10546.01172,1.0966.35461,1.15421.39075a7.1065,7.1065,0,0,0,6.768.91534C103.9778,113.76069,103.98659,115.17424,103.98659,115.17424Z" />
</svg>
